<svg xmlns="http://www.w3.org/2000/svg" fill="none" viewBox="0 0 1200 1600"><defs><filter id="dnaGlow"><feGaussianBlur result="coloredBlur" stdDeviation="4"/><feMerge><feMergeNode in="coloredBlur"/><feMergeNode in="SourceGraphic"/></feMerge></filter><radialGradient id="cyanGlowCore"><stop offset="0%" stop-color="#5CF0FF" stop-opacity=".2"/><stop offset="100%" stop-color="#00E5FF" stop-opacity=".15"/></radialGradient><linearGradient id="basePairGrad" x1="0%" x2="100%" y1="0%" y2="0%"><stop offset="0%" stop-color="#00E5FF" stop-opacity=".15"/><stop offset="50%" stop-color="#5CF0FF" stop-opacity=".2"/><stop offset="100%" stop-color="#00E5FF" stop-opacity=".15"/></linearGradient><linearGradient id="shadowGrad"><stop offset="0%" stop-color="#00BCD4" stop-opacity=".1"/><stop offset="100%" stop-color="#008C9E" stop-opacity=".08"/></linearGradient></defs><path fill="none" stroke="url(#cyanGlowCore)" stroke-width="8" d="M 400 0 Q 350 200, 400 400 Q 450 600, 400 800 Q 350 1000, 400 1200 Q 450 1400, 400 1600" filter="url(#dnaGlow)" opacity=".85"/><path fill="none" stroke="url(#cyanGlowCore)" stroke-width="8" d="M 800 0 Q 850 200, 800 400 Q 750 600, 800 800 Q 850 1000, 800 1200 Q 750 1400, 800 1600" filter="url(#dnaGlow)" opacity=".85"/><line x1="400" x2="800" y1="100" y2="100" stroke="url(#basePairGrad)" stroke-width="3" filter="url(#dnaGlow)" opacity=".7"/><line x1="410" x2="790" y1="200" y2="200" stroke="url(#basePairGrad)" stroke-width="3" filter="url(#dnaGlow)" opacity=".7"/><line x1="400" x2="800" y1="300" y2="300" stroke="url(#basePairGrad)" stroke-width="3" filter="url(#dnaGlow)" opacity=".7"/><line x1="390" x2="810" y1="400" y2="400" stroke="url(#basePairGrad)" stroke-width="3" filter="url(#dnaGlow)" opacity=".7"/><line x1="400" x2="800" y1="500" y2="500" stroke="url(#basePairGrad)" stroke-width="3" filter="url(#dnaGlow)" opacity=".7"/><line x1="410" x2="790" y1="600" y2="600" stroke="url(#basePairGrad)" stroke-width="3" filter="url(#dnaGlow)" opacity=".7"/><line x1="400" x2="800" y1="700" y2="700" stroke="url(#basePairGrad)" stroke-width="3" filter="url(#dnaGlow)" opacity=".7"/><line x1="390" x2="810" y1="800" y2="800" stroke="url(#basePairGrad)" stroke-width="3" filter="url(#dnaGlow)" opacity=".7"/><line x1="400" x2="800" y1="900" y2="900" stroke="url(#basePairGrad)" stroke-width="3" filter="url(#dnaGlow)" opacity=".7"/><line x1="410" x2="790" y1="1000" y2="1000" stroke="url(#basePairGrad)" stroke-width="3" filter="url(#dnaGlow)" opacity=".7"/><line x1="400" x2="800" y1="1100" y2="1100" stroke="url(#basePairGrad)" stroke-width="3" filter="url(#dnaGlow)" opacity=".7"/><line x1="390" x2="810" y1="1200" y2="1200" stroke="url(#basePairGrad)" stroke-width="3" filter="url(#dnaGlow)" opacity=".7"/><line x1="400" x2="800" y1="1300" y2="1300" stroke="url(#basePairGrad)" stroke-width="3" filter="url(#dnaGlow)" opacity=".7"/><line x1="410" x2="790" y1="1400" y2="1400" stroke="url(#basePairGrad)" stroke-width="3" filter="url(#dnaGlow)" opacity=".7"/><line x1="400" x2="800" y1="1500" y2="1500" stroke="url(#basePairGrad)" stroke-width="3" filter="url(#dnaGlow)" opacity=".7"/><circle cx="400" cy="100" r="6" fill="#5CF0FF" filter="url(#dnaGlow)" opacity=".25"/><circle cx="800" cy="100" r="6" fill="#5CF0FF" filter="url(#dnaGlow)" opacity=".25"/><circle cx="400" cy="400" r="6" fill="#5CF0FF" filter="url(#dnaGlow)" opacity=".25"/><circle cx="800" cy="400" r="6" fill="#5CF0FF" filter="url(#dnaGlow)" opacity=".25"/><circle cx="400" cy="700" r="6" fill="#5CF0FF" filter="url(#dnaGlow)" opacity=".25"/><circle cx="800" cy="700" r="6" fill="#5CF0FF" filter="url(#dnaGlow)" opacity=".25"/><circle cx="400" cy="1000" r="6" fill="#5CF0FF" filter="url(#dnaGlow)" opacity=".25"/><circle cx="800" cy="1000" r="6" fill="#5CF0FF" filter="url(#dnaGlow)" opacity=".25"/><circle cx="400" cy="1300" r="6" fill="#5CF0FF" filter="url(#dnaGlow)" opacity=".25"/><circle cx="800" cy="1300" r="6" fill="#5CF0FF" filter="url(#dnaGlow)" opacity=".25"/></svg>