<svg xmlns="http://www.w3.org/2000/svg" fill="none" viewBox="0 0 1200 1600"><defs><filter id="molecularGlow"><feGaussianBlur result="coloredBlur" stdDeviation="5"/><feMerge><feMergeNode in="coloredBlur"/><feMergeNode in="SourceGraphic"/></feMerge></filter><radialGradient id="nodeGlow"><stop offset="0%" stop-color="#5CF0FF" stop-opacity=".25"/><stop offset="100%" stop-color="#00BCD4" stop-opacity=".12"/></radialGradient><linearGradient id="bondGrad" x1="0%" x2="100%" y1="0%" y2="100%"><stop offset="0%" stop-color="#008C9E" stop-opacity=".12"/><stop offset="100%" stop-color="#00BCD4" stop-opacity=".1"/></linearGradient></defs><circle cx="180" cy="220" r="8" fill="url(#nodeGlow)" filter="url(#molecularGlow)" opacity=".7"/><circle cx="260" cy="180" r="6" fill="url(#nodeGlow)" filter="url(#molecularGlow)" opacity=".7"/><circle cx="320" cy="260" r="5" fill="url(#nodeGlow)" filter="url(#molecularGlow)" opacity=".7"/><line x1="180" x2="260" y1="220" y2="180" stroke="url(#bondGrad)" stroke-width="2" filter="url(#molecularGlow)"/><line x1="260" x2="320" y1="180" y2="260" stroke="url(#bondGrad)" stroke-width="2" filter="url(#molecularGlow)"/><circle cx="140" cy="500" r="7" fill="url(#nodeGlow)" filter="url(#molecularGlow)" opacity=".7"/><circle cx="220" cy="560" r="9" fill="url(#nodeGlow)" filter="url(#molecularGlow)" opacity=".7"/><circle cx="280" cy="480" r="5" fill="url(#nodeGlow)" filter="url(#molecularGlow)" opacity=".7"/><circle cx="160" cy="620" r="4" fill="url(#nodeGlow)" filter="url(#molecularGlow)" opacity=".7"/><line x1="140" x2="220" y1="500" y2="560" stroke="url(#bondGrad)" stroke-width="2" filter="url(#molecularGlow)"/><line x1="220" x2="280" y1="560" y2="480" stroke="url(#bondGrad)" stroke-width="2" filter="url(#molecularGlow)"/><line x1="220" x2="160" y1="560" y2="620" stroke="url(#bondGrad)" stroke-width="1.5" filter="url(#molecularGlow)"/><circle cx="200" cy="900" r="6" fill="url(#nodeGlow)" filter="url(#molecularGlow)" opacity=".7"/><circle cx="280" cy="940" r="7" fill="url(#nodeGlow)" filter="url(#molecularGlow)" opacity=".7"/><circle cx="340" cy="880" r="5" fill="url(#nodeGlow)" filter="url(#molecularGlow)" opacity=".7"/><line x1="200" x2="280" y1="900" y2="940" stroke="url(#bondGrad)" stroke-width="2" filter="url(#molecularGlow)"/><line x1="280" x2="340" y1="940" y2="880" stroke="url(#bondGrad)" stroke-width="2" filter="url(#molecularGlow)"/><circle cx="920" cy="180" r="9" fill="url(#nodeGlow)" filter="url(#molecularGlow)" opacity=".7"/><circle cx="840" cy="240" r="6" fill="url(#nodeGlow)" filter="url(#molecularGlow)" opacity=".7"/><circle cx="980" cy="260" r="7" fill="url(#nodeGlow)" filter="url(#molecularGlow)" opacity=".7"/><circle cx="1020" cy="180" r="4" fill="url(#nodeGlow)" filter="url(#molecularGlow)" opacity=".7"/><line x1="920" x2="840" y1="180" y2="240" stroke="url(#bondGrad)" stroke-width="2" filter="url(#molecularGlow)"/><line x1="920" x2="980" y1="180" y2="260" stroke="url(#bondGrad)" stroke-width="2" filter="url(#molecularGlow)"/><line x1="920" x2="1020" y1="180" y2="180" stroke="url(#bondGrad)" stroke-width="1.5" filter="url(#molecularGlow)"/><circle cx="900" cy="520" r="8" fill="url(#nodeGlow)" filter="url(#molecularGlow)" opacity=".7"/><circle cx="980" cy="580" r="6" fill="url(#nodeGlow)" filter="url(#molecularGlow)" opacity=".7"/><circle cx="1040" cy="500" r="5" fill="url(#nodeGlow)" filter="url(#molecularGlow)" opacity=".7"/><line x1="900" x2="980" y1="520" y2="580" stroke="url(#bondGrad)" stroke-width="2" filter="url(#molecularGlow)"/><line x1="980" x2="1040" y1="580" y2="500" stroke="url(#bondGrad)" stroke-width="2" filter="url(#molecularGlow)"/><circle cx="940" cy="1100" r="7" fill="url(#nodeGlow)" filter="url(#molecularGlow)" opacity=".7"/><circle cx="860" cy="1160" r="6" fill="url(#nodeGlow)" filter="url(#molecularGlow)" opacity=".7"/><circle cx="1020" cy="1140" r="8" fill="url(#nodeGlow)" filter="url(#molecularGlow)" opacity=".7"/><circle cx="980" cy="1220" r="4" fill="url(#nodeGlow)" filter="url(#molecularGlow)" opacity=".7"/><line x1="940" x2="860" y1="1100" y2="1160" stroke="url(#bondGrad)" stroke-width="2" filter="url(#molecularGlow)"/><line x1="940" x2="1020" y1="1100" y2="1140" stroke="url(#bondGrad)" stroke-width="2" filter="url(#molecularGlow)"/><line x1="1020" x2="980" y1="1140" y2="1220" stroke="url(#bondGrad)" stroke-width="1.5" filter="url(#molecularGlow)"/><circle cx="500" cy="320" r="4" fill="#5CF0FF" filter="url(#molecularGlow)" opacity=".15"/><circle cx="620" cy="280" r="3" fill="#5CF0FF" filter="url(#molecularGlow)" opacity=".12"/><circle cx="460" cy="740" r="5" fill="#5CF0FF" filter="url(#molecularGlow)" opacity=".15"/><circle cx="580" cy="800" r="3" fill="#5CF0FF" filter="url(#molecularGlow)" opacity=".12"/><circle cx="720" cy="680" r="4" fill="#5CF0FF" filter="url(#molecularGlow)" opacity=".15"/><circle cx="540" cy="1200" r="4" fill="#5CF0FF" filter="url(#molecularGlow)" opacity=".15"/><circle cx="660" cy="1260" r="3" fill="#5CF0FF" filter="url(#molecularGlow)" opacity=".12"/><circle cx="260" cy="180" r="12" fill="#5CF0FF" filter="url(#molecularGlow)" opacity=".05"/><circle cx="920" cy="180" r="14" fill="#5CF0FF" filter="url(#molecularGlow)" opacity=".05"/><circle cx="220" cy="560" r="13" fill="#5CF0FF" filter="url(#molecularGlow)" opacity=".05"/><circle cx="1020" cy="1140" r="12" fill="#5CF0FF" filter="url(#molecularGlow)" opacity=".05"/></svg>